<?xml version="1.0" encoding="UTF-8" standalone="no"?>
<svg
   xmlns:dc="http://purl.org/dc/elements/1.1/"
   xmlns:cc="http://creativecommons.org/ns#"
   xmlns:rdf="http://www.w3.org/1999/02/22-rdf-syntax-ns#"
   xmlns:svg="http://www.w3.org/2000/svg"
   xmlns="http://www.w3.org/2000/svg"
   xmlns:sodipodi="http://sodipodi.sourceforge.net/DTD/sodipodi-0.dtd"
   xmlns:inkscape="http://www.inkscape.org/namespaces/inkscape"
   width="110"
   height="24"
   version="1.1"
   id="svg4"
   sodipodi:docname="logo-white.svg"
   fill="none"
   inkscape:version="0.92.1 r15371">
  <metadata
     id="metadata10">
    <rdf:RDF>
      <cc:Work
         rdf:about="">
        <dc:format>image/svg+xml</dc:format>
        <dc:type
           rdf:resource="http://purl.org/dc/dcmitype/StillImage" />
        <dc:title />
      </cc:Work>
    </rdf:RDF>
  </metadata>
  <defs
     id="defs8" />
  <sodipodi:namedview
     pagecolor="#ffffff"
     bordercolor="#666666"
     borderopacity="1"
     objecttolerance="10"
     gridtolerance="10"
     guidetolerance="10"
     inkscape:pageopacity="0"
     inkscape:pageshadow="2"
     inkscape:window-width="1024"
     inkscape:window-height="715"
     id="namedview6"
     showgrid="false"
     inkscape:zoom="5.6568543"
     inkscape:cx="78.700609"
     inkscape:cy="18.415112"
     inkscape:window-x="-8"
     inkscape:window-y="-8"
     inkscape:window-maximized="1"
     inkscape:current-layer="svg4" />
  <path
     style="fill:#ffffff;stroke-width:0.5;stroke-miterlimit:4;stroke-dasharray:none;stroke:#136efa;stroke-opacity:1"
     d="M 11.201148,1.0104392 C 10.955904,0.8983896 9.8815182,1.6589022 5.9509007,4.7262648 l -4.9411812,3.8544613 -0.00389,1.6910009 -0.00583,1.689178 1.6289181,-0.813578 C 4.848194,10.036749 9.3920052,8.2070352 12.229428,7.2819206 c 1.289393,-0.4203952 2.375292,-0.764325 2.412276,-0.764325 0.03698,0 0.508965,0.5205711 1.04966,1.1565204 l 0.98357,1.1565213 -2.612489,2.4334367 c -1.436472,1.339113 -2.800257,2.690819 -3.032354,3.002576 -0.381151,0.511973 -0.389329,0.55384 -0.0797,0.435976 2.128159,-0.810096 7.557409,-2.395902 9.623835,-2.81104 l 0.482066,-0.09668 -0.0098,-1.60709 -0.0098,-1.6070898 L 16.272399,4.866726 C 13.65235,2.8235559 11.370698,1.0879057 11.201148,1.0104392 Z M 53.957334,1.8951599 V 12.21264 22.531945 h 2.110984 2.110984 V 12.21264 1.8951599 h -2.110984 z m 7.740277,0 V 12.21264 22.531945 h 2.110983 2.110985 V 12.21264 1.8951599 H 63.808594 Z M 48.260007,2.2399275 c -0.370379,0.00514 -0.751399,0.1019458 -1.121582,0.3137561 -1.665976,0.9532312 -1.685481,3.3256126 -0.03304,4.1572733 1.309774,0.6592007 2.745581,0.1825057 3.356971,-1.1145648 C 51.248077,3.9294786 49.864992,2.2176429 48.260012,2.2399275 Z M 28.2698,3.7102042 v 1.981044 1.981044 h 3.872082 c 2.128804,0 3.870139,0.063789 3.870139,0.1404601 0,0.07667 -1.788683,3.1404667 -3.975105,6.8096107 -2.47284,4.149797 -4.011663,6.906052 -4.070351,7.291189 l -0.0933,0.618393 h 7.586715 7.588659 v -1.898957 -1.897132 h -4.241407 c -3.797297,0 -4.230219,-0.02858 -4.134497,-0.26268 0.05881,-0.143809 1.889348,-3.257429 4.066463,-6.91906 3.110014,-5.2306448 3.95761,-6.7849305 3.95761,-7.2510576 V 3.7102042 h -7.213502 z m 79.07639,2.024824 c -0.22773,-1.718e-4 -0.30722,0.011096 -0.50539,0.072972 -0.23547,0.073522 -0.44947,0.1976874 -0.63368,0.3703052 -0.13985,0.1310448 -0.23894,0.2638249 -0.32851,0.4341516 -0.32963,0.6269329 -0.23053,1.3485337 0.26048,1.8843624 0.24701,0.269566 0.61445,0.4519207 1.00883,0.5034697 0.11467,0.01499 0.38556,0.0046 0.51124,-0.020064 0.3275,-0.064526 0.57564,-0.1930984 0.82028,-0.4232063 0.20304,-0.1909567 0.3289,-0.379511 0.41987,-0.6256877 0.31919,-0.8637852 -0.14676,-1.826656 -1.02634,-2.1178566 -0.18665,-0.061801 -0.30146,-0.078267 -0.52678,-0.078435 z m -0.22548,0.3192291 c 0.14554,-0.025638 0.40243,-0.015971 0.54816,0.020062 0.12933,0.031979 0.3052,0.1088428 0.42181,0.1842411 0.23355,0.1510141 0.43137,0.4053348 0.52483,0.673117 0.0583,0.1671036 0.075,0.2879223 0.0681,0.4888768 -0.007,0.1945646 -0.0316,0.3156119 -0.10108,0.4742825 -0.18476,0.4214408 -0.57911,0.7217793 -1.0341,0.7916876 -0.20099,0.030283 -0.41832,0.013563 -0.61231,-0.047432 -0.46323,-0.1456433 -0.80208,-0.5177029 -0.91165,-1.0032913 -0.0318,-0.1392156 -0.0328,-0.3703215 -0.004,-0.5125898 0.057,-0.280543 0.19495,-0.5277049 0.40238,-0.7223691 0.20028,-0.1879527 0.41914,-0.2974993 0.69782,-0.3465917 z m -0.37904,0.3356464 v 0.9503902 l -0.002,0.9485659 h 0.14967 0.14773 l 0.004,-0.2863938 0.002,-0.2863938 h 0.15938 0.1594 l 0.17494,0.2863938 0.17688,0.2863938 h 0.17496 0.17299 l -0.035,-0.060192 c -0.0198,-0.032637 -0.10486,-0.1703405 -0.18856,-0.30646 -0.0838,-0.1361195 -0.14882,-0.2483041 -0.14384,-0.2499101 0.005,-0.00154 0.0415,-0.020768 0.0797,-0.041954 0.29932,-0.1660282 0.40989,-0.5831002 0.24103,-0.9102588 -0.083,-0.1608711 -0.24172,-0.2793839 -0.42375,-0.315581 -0.0567,-0.011283 -0.16803,-0.014457 -0.46263,-0.014598 z m 0.3013,0.2736251 h 0.21964 c 0.18406,2.71e-5 0.2299,0.00252 0.27797,0.01824 0.0802,0.026198 0.15846,0.097251 0.20216,0.1805921 0.0302,0.058205 0.0368,0.080948 0.0408,0.1623506 0.009,0.1910153 -0.0698,0.3268634 -0.22937,0.3958448 -0.0306,0.013207 -0.088,0.016867 -0.27797,0.020062 l -0.23909,0.00364 0.004,-0.3903717 z m -31.254635,2.085021 c -2.642726,-0.00825 -5.285605,1.3251232 -6.655627,4.0022192 -0.498331,0.973765 -0.628279,1.44915 -0.701718,2.55748 -0.238725,3.602799 1.889757,6.544772 5.405753,7.466309 2.771938,0.726522 6.131807,-0.353386 7.825805,-2.513699 1.083336,-1.381551 1.393682,-2.354227 1.403436,-4.414481 0.0083,-1.751595 -0.01523,-1.861208 -0.623965,-3.055477 -1.368893,-2.68562 -4.010958,-4.0341276 -6.653684,-4.0423512 z m 17.138629,0.2371413 -0.923312,2.9350829 c -0.50768,1.614189 -1.060535,3.436696 -1.228493,4.049647 -0.16796,0.612951 -0.350833,1.112741 -0.406258,1.112741 -0.05542,0 -0.644459,-1.81939 -1.308188,-4.044175 L 87.853604,8.9948112 h -2.081828 c -1.145257,0 -2.085324,0.054109 -2.089603,0.1222199 -0.0043,0.0681 0.964055,3.1144749 2.151805,6.7694779 l 2.15958,6.645436 h 1.98658 1.98658 l 0.180776,-0.443273 c 0.09907,-0.244549 0.626026,-1.880521 1.170177,-3.633738 0.544152,-1.753216 1.034569,-3.185802 1.090481,-3.184993 0.05591,8.16e-4 0.402927,1.02743 0.771695,2.282032 0.368767,1.254602 0.869708,2.88774 1.111863,3.630089 l 0.439303,1.349883 h 1.971029 1.971038 l 2.07016,-6.397349 c 1.13857,-3.518792 2.11646,-6.5651609 2.17319,-6.7694789 0.10238,-0.3687109 0.0878,-0.3703059 -1.84663,-0.3703059 h -1.94965 l -0.27602,0.8664799 c -0.15201,0.4767399 -0.67853,2.2401919 -1.170179,3.9201319 -0.491647,1.679938 -0.952217,3.115174 -1.024392,3.188641 -0.07217,0.07347 -0.387823,-0.744518 -0.699773,-1.816869 -0.311951,-1.072349 -0.862642,-2.878071 -1.224605,-4.013165 l -0.65701,-2.0631299 -1.570603,-0.04561 z m -46.886794,0.00913 v 6.7676539 6.769478 h 2.198456 2.2004 V 15.762465 8.9948112 h -2.2004 z M 9.7082977,11.375349 c -0.018286,-0.0053 -0.048052,-4.37e-4 -0.087472,0.011 -0.7210157,0.208098 -5.4243377,2.204804 -7.081323,3.00617 L 1,15.136779 v 3.779671 3.781494 H 11.028149 21.056298 V 19.129878 15.56181 l -0.658954,0.111274 C 17.727128,16.127278 10.018074,18.620227 7.301853,19.906969 6.7151448,20.184906 6.1721832,20.350515 6.0947431,20.275451 5.6166208,19.811982 4.168421,18.005496 4.168421,17.873025 c 0,-0.325079 2.5979614,-3.390822 4.2180816,-4.976323 1.0501635,-1.027723 1.4498023,-1.484429 1.3217951,-1.521353 z M 75.737796,12.46255 c 1.098273,-7.26e-4 1.719572,0.264375 2.456984,1.052544 1.45637,1.556611 0.930715,4.630719 -0.934976,5.461553 -1.97266,0.878466 -3.956982,0.01254 -4.579631,-1.997462 -0.714101,-2.305214 0.781975,-4.51514 3.057623,-4.516635 z"
     id="path12"
     inkscape:connector-curvature="0" />
  <path
     style="fill:#ffffff;stroke:#136efa;stroke-width:0.015625;stroke-miterlimit:4;stroke-dasharray:none;stroke-opacity:1"
     d="m 107.04597,9.2240708 c -0.72448,-0.1093025 -1.3733,-0.7085489 -1.54124,-1.4234803 -0.0684,-0.2913091 -0.0454,-0.7657882 0.0503,-1.0388983 0.0881,-0.2511361 0.33267,-0.6188597 0.52325,-0.7866203 0.3477,-0.3060554 0.78127,-0.4678164 1.25388,-0.4678164 0.53452,0 0.93015,0.1526021 1.29558,0.4997266 0.41081,0.3902271 0.59636,0.8138277 0.59558,1.3596484 -7.9e-4,0.5465489 -0.15778,0.91801 -0.55611,1.3158138 -0.19463,0.1943731 -0.30819,0.2790156 -0.48803,0.3637737 -0.35729,0.1683888 -0.76835,0.2329025 -1.13323,0.1778528 z m 0.42259,-0.7742105 c 0.0493,-0.019488 0.0433,-0.040404 -0.0571,-0.2009286 -0.0616,-0.098547 -0.11802,-0.1791762 -0.12529,-0.1791762 -0.007,0 -0.0132,0.091406 -0.0132,0.203125 0,0.1904656 0.004,0.2029882 0.0703,0.2009286 0.0387,-0.00121 0.0951,-0.011985 0.1253,-0.023949 z M 106.49071,7.358818 c -9.2e-4,-0.6252346 -0.005,-0.6746803 -0.0504,-0.6171875 -0.17578,0.2224006 -0.24846,0.6623085 -0.15551,0.9412801 0.0505,0.151437 0.16002,0.3555949 0.19082,0.3555949 0.009,0 0.0156,-0.3058593 0.0151,-0.6796875 z m 1.84665,0.4774138 c 0.0849,-0.1724255 0.0999,-0.2381376 0.10201,-0.4453125 0.001,-0.135834 -0.017,-0.2981764 -0.0417,-0.3680388 l -0.0441,-0.125 -0.0227,0.1940161 c -0.0263,0.2256869 -0.12113,0.4580354 -0.23559,0.5775581 l -0.0805,0.084074 0.0835,0.1424883 c 0.0459,0.078369 0.0961,0.1424883 0.11148,0.1424883 0.0154,0 0.0728,-0.091023 0.12755,-0.2022737 z M 107.5167,7.1572555 c 0.0206,-0.020625 0.0375,-0.067031 0.0375,-0.103125 0,-0.093741 -0.0594,-0.140625 -0.17812,-0.140625 -0.10139,0 -0.10313,0.00237 -0.10313,0.140625 0,0.1382576 0.002,0.140625 0.10313,0.140625 0.0567,0 0.12,-0.016875 0.14062,-0.0375 z"
     id="path835"
     inkscape:connector-curvature="0" />
</svg>
